<svg width="1902" height="537" viewBox="0 0 1902 537" fill="none" xmlns="http://www.w3.org/2000/svg">
<path d="M662.5 145.3C671.8 133.9 683.9 124.8 698.8 118.1C713.7 111.4 731 108 750.7 108C770.4 108 789.5 111.8 808 119.4C826.5 127 842.8 137.7 857 151.3C871.2 165 882.5 181.1 891 199.8C899.5 218.5 903.7 238.9 903.7 261C903.7 282.8 899.5 303 891 321.7C882.5 340.4 871.2 356.5 857 370C842.8 383.5 826.5 394 808 401.7C789.5 409.3 770.4 413.1 750.7 413.1C741.4 413.1 732.3 412 723.5 409.7C714.7 407.4 706.4 404.5 698.6 400.9C690.8 397.3 683.6 393 677.1 388.2C670.5 383.4 665 378.3 660.5 373.2C659.5 383.2 656.8 391.4 652.5 397.6C648.2 403.8 640 406.9 627.9 406.9C620.6 406.9 614.6 404.5 609.7 399.6C604.9 394.8 602.4 388.4 602.4 380.4V29.5C602.4 20.5 605.3 13.3 611 8C616.7 2.6 623.9 0 632.5 0C641.8 0 649.2 2.7 654.6 8C660 13.4 662.6 20.5 662.6 29.5V145.3H662.5ZM750.8 167.6C738.3 167.6 726.7 170 716 174.9C705.3 179.7 695.9 186.4 688 194.9C680 203.4 673.8 213.3 669.3 224.7C664.8 236.1 662.6 248.2 662.6 261C662.6 273.8 664.8 285.8 669.3 297.1C673.8 308.3 680 318.1 688 326.4C696 334.7 705.3 341.3 716 346.1C726.7 350.9 738.3 353.4 750.8 353.4C763.6 353.4 775.7 351 787.1 346.1C798.5 341.3 808.4 334.7 816.7 326.4C825 318.1 831.6 308.3 836.4 297.1C841.2 285.9 843.7 273.8 843.7 261C843.7 248.2 841.3 236.1 836.4 224.7C831.6 213.3 825 203.3 816.7 194.9C808.4 186.4 798.5 179.8 787.1 174.9C775.7 170 763.6 167.6 750.8 167.6Z" fill="url(#paint0_linear_361_19)"/>
<path d="M1086 107.9C1106.8 107.9 1126.4 111.9 1144.9 119.8C1163.4 127.8 1179.6 138.4 1193.4 151.7C1207.2 165 1218.2 180.6 1226.4 198.4C1234.5 216.2 1238.6 235 1238.6 254.7C1238.6 264.7 1236 272.3 1230.8 277.5C1225.6 282.7 1218.3 285.3 1209 285.3H998.3C1000 295 1003.7 304 1009.2 312.3C1014.7 320.6 1021.6 327.8 1029.7 333.8C1037.8 339.9 1046.7 344.6 1056.4 348.1C1066.1 351.6 1075.9 353.3 1086 353.3C1098.8 353.3 1110.6 351.1 1121.3 346.6C1132 342.1 1141.5 335.7 1149.8 327.4C1153.3 324.3 1157.1 321.8 1161.2 319.9C1165.4 318 1169.3 317 1173.1 317C1181.1 317 1187.7 319.9 1193.1 325.8C1198.5 331.7 1201.1 338.6 1201.1 346.6C1201.1 350.8 1200.6 354.7 1199.5 358.5C1198.5 362.3 1196.4 365.8 1193.3 368.9C1179.8 383.8 1163.9 394.8 1145.6 402.1C1127.3 409.4 1107.4 413 1085.9 413C1064.8 413 1045 409 1026.5 401.1C1008 393.1 991.8 382.3 978 368.7C964.2 355 953.3 339 945.3 320.4C937.3 301.9 933.4 282.1 933.4 261C933.4 239.9 937.4 220.1 945.3 201.6C953.3 183.1 964.2 166.9 978 153.1C991.8 139.3 1008 128.3 1026.5 120.1C1045.1 112 1064.9 107.9 1086 107.9ZM1086 167.6C1076 167.6 1066.1 169.3 1056.4 172.8C1046.7 176.3 1038 181.1 1030.2 187.3C1022.4 193.5 1015.7 200.8 1010.2 209.1C1004.7 217.4 1000.9 226.4 998.8 236.1H1173.2C1171.5 226.4 1167.8 217.4 1162.3 209.1C1156.8 200.8 1150 193.5 1142.1 187.3C1134.1 181.1 1125.3 176.2 1115.6 172.8C1105.9 169.3 1096 167.6 1086 167.6Z" fill="url(#paint1_linear_361_19)"/>
<path d="M1338.2 376.7C1338.2 386 1335.5 393.4 1330.2 398.8C1324.8 404.2 1317.5 406.8 1308.1 406.8C1299.8 406.8 1292.8 404.1 1287.1 398.8C1281.4 393.4 1278.5 386.1 1278.5 376.7V29.5C1278.5 20.5 1281.4 13.3 1287.1 8C1292.8 2.6 1299.8 0 1308.1 0C1317.4 0 1324.8 2.7 1330.2 8C1335.6 13.4 1338.2 20.5 1338.2 29.5V376.7Z" fill="url(#paint2_linear_361_19)"/>
<path d="M1450.5 376.7C1450.5 386 1447.8 393.4 1442.5 398.8C1437.1 404.2 1429.8 406.8 1420.4 406.8C1412.1 406.8 1405.1 404.1 1399.4 398.8C1393.7 393.4 1390.8 386.1 1390.8 376.7V29.5C1390.8 20.5 1393.7 13.3 1399.4 8C1405.1 2.6 1412.1 0 1420.4 0C1429.7 0 1437.1 2.7 1442.5 8C1447.9 13.4 1450.5 20.5 1450.5 29.5V376.7Z" fill="url(#paint3_linear_361_19)"/>
<path d="M1561.6 507.5C1561.6 516.5 1558.9 523.7 1553.6 529C1548.2 534.4 1540.9 537 1531.5 537C1522.8 537 1515.7 534.3 1510 529C1504.3 523.6 1501.4 516.5 1501.4 507.5V140.6C1501.4 132.6 1503.9 126.3 1508.9 121.7C1513.9 117 1519.9 114.7 1526.8 114.7C1537.5 114.7 1545 117.6 1549.4 123.3C1553.7 129 1557.1 137.4 1559.5 148.5C1564 143.3 1569.5 138.3 1576.1 133.5C1582.7 128.7 1589.9 124.3 1597.6 120.5C1605.4 116.7 1613.7 113.7 1622.5 111.4C1631.3 109.2 1640.4 108 1649.7 108C1669.4 108 1688.5 112 1707 119.9C1725.5 127.9 1741.8 138.8 1756 152.6C1770.2 166.4 1781.5 182.6 1790 201.1C1798.5 219.6 1802.7 239.4 1802.7 260.5C1802.7 281.6 1798.5 301.4 1790 319.9C1781.5 338.4 1770.2 354.6 1756 368.4C1741.8 382.2 1725.5 393.1 1707 401.1C1688.5 409.1 1669.4 413 1649.7 413C1630 413 1612.7 409.6 1597.8 402.9C1582.9 396.2 1570.8 387.2 1561.5 376.2V507.5H1561.6ZM1649.8 353.3C1662.6 353.3 1674.7 350.9 1686.1 346C1697.5 341.2 1707.4 334.5 1715.7 326C1724 317.5 1730.6 307.7 1735.4 296.4C1740.2 285.2 1742.7 273.1 1742.7 260.3C1742.7 247.5 1740.3 235.5 1735.4 224.2C1730.6 213 1724 203.1 1715.7 194.6C1707.4 186.1 1697.5 179.5 1686.1 174.6C1674.7 169.8 1662.6 167.3 1649.8 167.3C1637.3 167.3 1625.7 169.7 1615 174.6C1604.3 179.4 1594.9 186.1 1587 194.6C1579 203.1 1572.8 212.9 1568.3 224.2C1563.8 235.4 1561.6 247.5 1561.6 260.3C1561.6 273.1 1563.8 285.1 1568.3 296.4C1572.8 307.6 1579 317.5 1587 326C1595 334.5 1604.3 341.1 1615 346C1625.8 350.9 1637.4 353.3 1649.8 353.3Z" fill="url(#paint4_linear_361_19)"/>
<path d="M1902 71.1C1902 80.1 1899.3 87.3 1894 92.6C1888.6 98 1881.3 100.6 1871.9 100.6C1863.6 100.6 1856.6 97.9 1850.9 92.6C1845.2 87.2 1842.3 80.1 1842.3 71.1V29.5C1842.3 20.5 1845.2 13.3 1850.9 8C1856.6 2.6 1863.6 0 1871.9 0C1881.2 0 1888.6 2.7 1894 8C1899.4 13.4 1902 20.5 1902 29.5V71.1ZM1902 376.7C1902 386 1899.3 393.4 1894 398.8C1888.6 404.2 1881.3 406.8 1871.9 406.8C1863.6 406.8 1856.6 404.1 1850.9 398.8C1845.2 393.4 1842.3 386.1 1842.3 376.7V154.6C1842.3 146 1845.2 138.9 1850.9 133.3C1856.6 127.8 1863.6 125 1871.9 125C1881.2 125 1888.6 127.8 1894 133.3C1899.4 138.8 1902 145.9 1902 154.6V376.7Z" fill="url(#paint5_linear_361_19)"/>
<path d="M101.6 121.1C99.4 121.1 97.3 120.4 95.5 118.8C91.5 115.4 91.1 109.5 94.4 105.5C110.2 86.8999 127.1 77.1999 149.2 73.8999C154.4 73.0999 159.2 76.6999 159.9 81.7999C160.7 86.9999 157.1 91.7999 152 92.4999C134.6 95.0999 121.6 102.6 108.8 117.7C106.9 120 104.2 121.1 101.6 121.1Z" fill="#00B694"/>
<path d="M64.7003 111.6C63.0003 111.6 61.2003 111.1 59.6003 110.1C55.2003 107.3 53.9003 101.4 56.7003 97.0998C71.4003 74.1998 91.8003 60.0998 106.5 52.2998C124.3 42.7998 143.4 37.3998 157.6 37.9998C162.8 38.1998 166.9 42.5998 166.7 47.7998C166.5 52.9998 162.1 57.0998 156.9 56.8998C136.3 56.0998 94.4003 73.4998 72.7003 107.3C70.8003 110.1 67.8003 111.6 64.7003 111.6Z" fill="#00B694"/>
<path d="M29.8003 103.1C28.1003 103.1 26.5003 102.7 25.0003 101.8C20.5003 99.1 19.1003 93.3 21.8003 88.8C50.8003 40.2 110.6 5 163.8 5C169 5 173.2 9.2 173.2 14.4C173.2 19.6 169 23.8 163.8 23.8C116.8 23.8 63.8003 55.2 37.8003 98.5C36.1003 101.5 33.0003 103.1 29.8003 103.1Z" fill="#00B694"/>
<path d="M251.4 100.2V82.1002C259.6 82.4002 267.7 83.0002 275.8 84.0002C279.7 84.5002 282.7 80.6002 281.4 76.9002C276.8 64.2002 265.8 55.2002 242.9 55.2002C221.5 55.2002 209.4 64.2002 204.5 77.0002C203.1 80.7002 206.1 84.7002 210.1 84.2002C218.1 83.1002 226.2 82.4002 234.4 82.1002V100.2C103.6 105.3 0 214.7 0 346.5V351C0 360 7.3 367.4 16.4 367.4H64.4C72.2 394.6 97.3 414.6 127 414.6C156.7 414.6 181.8 394.6 189.6 367.4H298.5C306.3 394.6 331.4 414.6 361.1 414.6C390.8 414.6 415.9 394.6 423.7 367.4H471C480 367.4 487.4 360.1 487.4 351V343.8C487.5 212 382.3 104.3 251.4 100.2ZM154.7 367.4C148.8 376.5 138.6 382.5 127 382.5C115.4 382.5 105.2 376.5 99.3 367.4C95.9 362.2 94 356.1 94 349.5C94 336.8 101.2 325.8 111.7 320.2C116.3 317.8 121.5 316.4 127 316.4C132.5 316.4 137.7 317.8 142.3 320.2C152.8 325.7 160 336.8 160 349.5C160 356.1 158.1 362.3 154.7 367.4ZM361.1 382.6C349.5 382.6 339.3 376.6 333.4 367.5C330 362.3 328.1 356.2 328.1 349.6C328.1 336.9 335.3 325.9 345.8 320.3C350.4 317.9 355.6 316.5 361.1 316.5C366.6 316.5 371.8 317.9 376.4 320.3C386.9 325.8 394.1 336.9 394.1 349.6C394.1 356.2 392.1 362.4 388.8 367.5C383 376.5 372.7 382.6 361.1 382.6ZM419.3 320.2C408.6 298.9 386.5 284.3 361.1 284.3C335.7 284.3 313.7 298.9 302.9 320.2H185.2C174.5 298.9 152.4 284.3 127 284.3C101.6 284.3 79.6 298.9 68.8 320.2H48.6C60.3 222.9 143.3 147.3 243.7 147.3C344.1 147.3 427.2 223 438.9 320.2H419.3Z" fill="#0076FD"/>
<defs>
<linearGradient id="paint0_linear_361_19" x1="597.563" y1="206.488" x2="1854.1" y2="206.488" gradientUnits="userSpaceOnUse">
<stop stop-color="#0076FD"/>
<stop offset="1" stop-color="#00B694"/>
</linearGradient>
<linearGradient id="paint1_linear_361_19" x1="597.563" y1="260.456" x2="1854.1" y2="260.456" gradientUnits="userSpaceOnUse">
<stop stop-color="#0076FD"/>
<stop offset="1" stop-color="#00B694"/>
</linearGradient>
<linearGradient id="paint2_linear_361_19" x1="597.563" y1="203.375" x2="1854.1" y2="203.375" gradientUnits="userSpaceOnUse">
<stop stop-color="#0076FD"/>
<stop offset="1" stop-color="#00B694"/>
</linearGradient>
<linearGradient id="paint3_linear_361_19" x1="597.564" y1="203.375" x2="1854.1" y2="203.375" gradientUnits="userSpaceOnUse">
<stop stop-color="#0076FD"/>
<stop offset="1" stop-color="#00B694"/>
</linearGradient>
<linearGradient id="paint4_linear_361_19" x1="597.563" y1="322.468" x2="1854.1" y2="322.468" gradientUnits="userSpaceOnUse">
<stop stop-color="#0076FD"/>
<stop offset="1" stop-color="#00B694"/>
</linearGradient>
<linearGradient id="paint5_linear_361_19" x1="597.564" y1="203.375" x2="1854.1" y2="203.375" gradientUnits="userSpaceOnUse">
<stop stop-color="#0076FD"/>
<stop offset="1" stop-color="#00B694"/>
</linearGradient>
</defs>
</svg>
